<svg xmlns="http://www.w3.org/2000/svg" viewBox="0 0 24 24" fill="currentColor">
  <path d="M12.015 2.016c5.522 0 10.008 4.486 10.008 10.008 0 5.523-4.486 10.009-10.008 10.009-1.745 0-3.385-.448-4.81-1.229l-5.187 1.36 1.391-5.06c-.84-1.465-1.324-3.17-1.324-4.99 0-5.522 4.486-10.008 9.93-10.008v-.09zm-.09 1.632c-4.664 0-8.453 3.79-8.453 8.454 0 1.83.585 3.535 1.583 4.965l.142.203-1.028 3.743 3.84-1.008.2.115c1.373.793 2.955 1.252 4.636 1.252 4.664 0 8.453-3.79 8.453-8.454 0-4.664-3.79-8.453-8.453-8.453zm4.562 11.53c-.253-.127-1.5-.742-1.728-.827-.234-.085-.4-.127-.573.127-.168.254-.648.827-.803.996-.15.17-.308.192-.556.064-.254-.128-1.077-.397-2.05-1.265-.757-.678-1.268-1.517-1.422-1.77-.148-.255-.015-.393.111-.52.113-.114.254-.298.38-.445.127-.148.17-.255.254-.424.085-.17.042-.318-.02-.446-.065-.127-.574-1.38-.787-1.89-.208-.496-.418-.428-.573-.436-.148-.008-.318-.008-.487-.008-.17 0-.444.064-.677.318-.232.254-.888.868-.888 2.118s.91 2.457 1.036 2.626c.127.17 1.79 2.73 4.332 3.826 2.54 1.096 2.54.74 3.003.74.45 0 1.488-.61 1.688-1.196.2-.587.2-1.096.14-1.203-.06-.106-.226-.17-.48-.298z"/>
</svg>
